# xmcd
#
# Track frame offsets: 
#        150
#        11804
#        27220
#        41658
#        50949
#        71568
#        90308
#        106877
#        120467
#        149346
#        164038
#        195400
#        216128
#        242748
#        262441
#        278028
#        288673
#        315453
#        329198
#        339240
#
# Disc length: 4746 seconds
#
# Revision: 0
# Processed by: cddbd v1.5.2PL0 Copyright (c) Steve Scherf et al.
# Submitted via: ExactAudioCopy v1.3
#
DISCID=39128814
DTITLE=The Rolling Stones - Rolled Gold CD 2
DYEAR=1975
DGENRE=Rock
TTITLE0=Have You Seen Your Mother, Baby, Standing In The Shadow?
TTITLE1=Let's Spend The Night Together
TTITLE2=Ruby Tuesday
TTITLE3=Yesterday's Papers
TTITLE4=We Love You
TTITLE5=She's A Rainbow
TTITLE6=Jumpin' Jack Flash
TTITLE7=Honky Tonk Woman
TTITLE8=Sympathy For The Devil
TTITLE9=Street Fighting Man
TTITLE10=Midnight Rambler 
TTITLE11=Gimme Shelter
TTITLE12=Sympathy For The Devil [First Workout]
TTITLE13=No Expectations [Early Take]
TTITLE14=Dear Doctor [Take I]
TTITLE15=Parachute Woman
TTITLE16=Jig-Saw Puzzle [Take 9]
TTITLE17=Prodigal Son [Different Mix]
TTITLE18=Factory Girl [Different Mix]
TTITLE19=Family [Electric Version]
EXTD=
EXTT0=
EXTT1=
EXTT2=
EXTT3=
EXTT4=
EXTT5=
EXTT6=
EXTT7=
EXTT8=
EXTT9=
EXTT10=
EXTT11=
EXTT12=
EXTT13=
EXTT14=
EXTT15=
EXTT16=
EXTT17=
EXTT18=
EXTT19=
PLAYORDER=
